# xmcd
#
# Track frame offsets:
#	150
#	12062
#	22549
#	33441
#	42463
#	53344
#	62410
#	71605
#	84062
#	94675
#	104286
#	114570
#	125037
#	134507
#	146532
#	156114
#	165727
#	177205
#	191023
#	202903
#	215495
#	225604
#	237829
#	248307
#	258775
#	269014
#	279955
#
# Disc length: 3899 seconds
#
# Revision: 1
# Processed by: cddbd v1.5.2PL0 Copyright (c) Steve Scherf et al.
# Submitted via: audiograbber 1.83.01
#
DISCID=5f0f391b
DTITLE=Various Artist - The Louisiana Hayride Story - Diggy Liggy Lo [CD 4 of 4)
DYEAR=2006
DGENRE=Country
TTITLE0=Tommy Hill - The Life That I'm Living
TTITLE1=Slim Whitman - Rose Marie
TTITLE2=Jim Reeves - Then I'll Stop Loving You
TTITLE3=Johnny Horton - The S.S.Lureline
TTITLE4=Johnny Horton - All For The Love Of A Girl
TTITLE5=Elvis Presley - Maybelline
TTITLE6=Jimmy&Johnny - Can't You Won't You
TTITLE7=Jim Reeves - Drinking Tequila
TTITLE8=Jimmy Newman - Diggy Liggy Lo
TTITLE9=Moon mUllican - Good Deal Lucille
TTITLE10=Johnny Horton - Ridin' The Sunshine Special
TTITLE11=Jack Ford - I Understand (Just How You Feel)
TTITLE12=Merle Kilgore - Everybody Needs A Little Lovin'
TTITLE13=Rudy Grayzell - It Ain't My Baby (And I Ain't Gonna Rock It)
TTITLE14=Jack Ford - Yankee Dime
TTITLE15=Elvis Presley - Tweedle Dee
TTITLE16=Werly Fairburn - Nothin' But Lovin'
TTITLE17=Jimmy Newman - Daydreamin'
TTITLE18=Carl Perkins - Gone! Gone! Gone!
TTITLE19=George Jones - What Am I Worth
TTITLE20=George Jones - Why Baby Why
TTITLE21=Arlie Duff - Lie Detector
TTITLE22=Al Terry - Hate Me Not
TTITLE23=Wayne Walker - Now Is The Time For Love
TTITLE24=Rusty&Doug - So Lovely Baby
TTITLE25=Johnny Cash - Cry Cry Cry
TTITLE26=Johnny Cash - Folsom Prison Blues
EXTD=YEAR: 2006 ID3G: 2
EXTT0=
EXTT1=
EXTT2=
EXTT3=
EXTT4=
EXTT5=
EXTT6=
EXTT7=
EXTT8=
EXTT9=
EXTT10=
EXTT11=
EXTT12=
EXTT13=
EXTT14=
EXTT15=
EXTT16=
EXTT17=
EXTT18=
EXTT19=
EXTT20=
EXTT21=
EXTT22=
EXTT23=
EXTT24=
EXTT25=
EXTT26=
PLAYORDER=
